<svg id="0c6cdd76-7abc-45c7-9fab-15cc96473497" data-name="图层 1" xmlns="http://www.w3.org/2000/svg" viewBox="0 0 376.49 73.67">
  <defs>
    <style>
      .\32 33f91ce-e781-4c5b-acf5-4ffd6c82be64 {
        fill: #fff;
      }
    </style>
  </defs>
  <title>toutiao</title>
  <path class="233f91ce-e781-4c5b-acf5-4ffd6c82be64" d="M41,63.35V46.59H7.4V36.48H41V21.25H4.33L4.56,2.15h14l-.06,9.09L41,11.14V.2h14.2V11.14H92.1V21.25H55.22V36.48H88.83V46.59H55.22V63.35H91.08V73.47H5.15V63.35ZM186.38,11.14h-81V4h32l0-4h16.55l0,4h32.49v7.15Zm-9.71,5.52h14.1v7.15H101V16.65h14.1l.31-3.58h16.55l-.21,3.58H160l.24-3.58h16.55l-.13,3.58Zm7.87,27.89L184.41,55H107.19V27.18h77.35V44.55Zm-65.23-6.06H172v-5.7H119.31v5.7Zm49.5,10,3.14,0,0-5.36v-.31H119.31v5.7ZM101.12,59.06h13.79l-.26,14.61H101l.16-14.61Zm88.95,0,.26,14.61h-13l-.16-14.61Zm-48.42-1.84h25.07l0,7.46H141.6l0-7.46Zm-6.5,9.6h38.13l0,6.85H121.13l.12-5.93V57.22h14.13l-.24,9.6ZM239.28,11.95l-39.54,0V2l39.54,0v10Zm0,15.56-39.54,0v-10l39.54.08v9.91ZM264,49.15l20.84,24.52h-16l-18.6-21.76L214.76,73.67H195.35l45-28.1H197.08V35.46H248V0h12.67V35.46h22.68V45.57H260.64l-5.93,3.58Zm79.11-6.23h37.7V51.4h-37.7v11L343,73.67h-25.1l4.5-8.48h6.38l.16-3.27V51.4H291.11V42.91h37.81v-4.5h14.2v4.5ZM315.94,56.3l-10,17.37H291.11l10-17.37Zm53.54,0,10,17.37H364.68l-10-17.37ZM380.83,4.8v9.91A65.54,65.54,0,0,1,370,22.53a92,92,0,0,1-12.62,6.08q10.83,1.84,23.4,2.76V40q-4.19,0-9.15-.31t-10.47-.92q-5.52-.61-11.39-1.63T338,34.64q-6.44,1.53-12.87,2.55t-12.41,1.64q-6,.61-11.44.87t-10,.26V31.37q7.05-.51,13.49-1.28t12.47-1.89a123.38,123.38,0,0,1-11.9-5.62,78.14,78.14,0,0,1-10.57-6.85h19a92.9,92.9,0,0,0,9.71,4.09q5.62,2,12.67,4.09a129.6,129.6,0,0,0,16.76-5.62,73.33,73.33,0,0,0,10.73-5.42H291.11L291.34.1h15.12l-.2,4.7Z" transform="translate(-4.33)"/>
</svg>
